<mxfile host="app.diagrams.net" modified="2023-06-08T20:52:27.037Z" agent="Mozilla/5.0 (Windows NT 10.0; Win64; x64) AppleWebKit/537.36 (KHTML, like Gecko) Chrome/114.0.0.0 Safari/537.36 Edg/114.0.1823.37" version="21.1.2" etag="jKWr3wIUlBDZzKn2nWnp" type="github">
  <diagram name="Страница 1" id="IVXsZOkJokUHgQ0Ynaj-">
    <mxGraphModel>
      <root>
        <mxCell id="0" />
        <mxCell id="1" parent="0" />
      </root>
    </mxGraphModel>
  </diagram>
</mxfile>
